<svg id="Laag_1" data-name="Laag 1" xmlns="http://www.w3.org/2000/svg" viewBox="0 0 1920 1080"><defs><style>.cls-1{fill:#1f6362;opacity:0.08;isolation:isolate;}.cls-2{opacity:0.82;}.cls-3{opacity:0.64;}</style></defs><g id="Group_148" data-name="Group 148"><path id="Path_6" data-name="Path 6" class="cls-1" d="M1096.92,117.82q13.41-23.23,32.92-29.12t41.36,6.73l41.11,23.74q21.84,12.6,26.51,32.44t-8.76,43.08l-29.93,51.85a62.32,62.32,0,0,1-9.74,13,46.81,46.81,0,0,1-11.88,8.64L1185,296.1l-33.5,9.08-6.26-29.47a32,32,0,0,1-9.16-1.9,64,64,0,0,1-10.19-4.89l-41.11-23.73q-21.85-12.62-26.51-32.45t8.75-43.07ZM1012,253.55l140.56,81.15a44.34,44.34,0,0,0,60.57-16.23l88.25-152.84a44.36,44.36,0,0,0-16.24-60.58L1144.59,23.9A44.35,44.35,0,0,0,1084,40.13L995.77,193A44.35,44.35,0,0,0,1012,253.55"/><path id="Path_7" data-name="Path 7" class="cls-1" d="M1110.94,212.65l24.68,14.25-5.55-24.11,33.69-8.79,4.92,27.59,24.06-41.67q5-8.67,3.25-16.09t-9.88-12.12l-30-17.32q-8.14-4.71-15.45-2.5t-12.3,10.86l-24.06,41.68q-5,8.65-3.25,16.08t9.89,12.14"/></g><g id="Group_149" data-name="Group 149"><path id="Path_6-2" data-name="Path 6" class="cls-1" d="M310.24,924.78q4.17-26.5,20.27-39t41-8.58l46.89,7.37q24.91,3.91,36.4,20.75t7.32,43.35l-9.3,59.14a61.93,61.93,0,0,1-4.42,15.62,46.58,46.58,0,0,1-8,12.34l16.07,23.74-28,20.51-16.43-25.25a31.85,31.85,0,0,1-9.23,1.52,63.46,63.46,0,0,1-11.27-.89l-46.9-7.37q-24.92-3.91-36.4-20.75T301,983.93ZM279.79,1082l160.34,25.2a44.34,44.34,0,0,0,50.69-36.91L518.23,895.9a44.35,44.35,0,0,0-36.93-50.69L321,820a44.33,44.33,0,0,0-50.69,36.92l-27.41,174.35A44.34,44.34,0,0,0,279.79,1082"/><path id="Path_7-2" data-name="Path 7" class="cls-1" d="M357.41,1008.24l28.17,4.42-13.85-20.51L400,971.84l14.51,24L422,948.29q1.56-9.88-2.74-16.18t-13.58-7.76L371.44,919q-9.29-1.47-15.32,3.22t-7.57,14.56l-7.47,47.53q-1.56,9.88,2.74,16.18t13.59,7.77"/></g><g id="Group_149-2" data-name="Group 149"><path id="Path_6-3" data-name="Path 6" class="cls-1" d="M1768.24,780.78q4.17-26.5,20.27-39t41-8.58l46.89,7.37q24.91,3.91,36.4,20.75t7.32,43.35l-9.3,59.14a61.93,61.93,0,0,1-4.42,15.62,46.58,46.58,0,0,1-8,12.34l16.07,23.74-28,20.51-16.43-25.25a31.85,31.85,0,0,1-9.23,1.52,63.46,63.46,0,0,1-11.27-.89l-46.9-7.37q-24.92-3.91-36.4-20.75T1759,839.93ZM1737.79,938l160.34,25.2a44.34,44.34,0,0,0,50.69-36.91l27.41-174.35a44.35,44.35,0,0,0-36.93-50.69L1779,676a44.33,44.33,0,0,0-50.69,36.92l-27.41,174.35A44.34,44.34,0,0,0,1737.79,938"/><path id="Path_7-3" data-name="Path 7" class="cls-1" d="M1815.41,864.24l28.17,4.42-13.85-20.51L1858,827.84l14.51,24,7.47-47.54q1.56-9.88-2.74-16.18t-13.58-7.76L1829.44,775q-9.29-1.47-15.32,3.22t-7.57,14.56l-7.47,47.53q-1.56,9.88,2.74,16.18t13.59,7.77"/></g><g id="Group_149-3" data-name="Group 149"><path id="Path_6-4" data-name="Path 6" class="cls-1" d="M1244,769.25q-4.43-17.41,2.18-29.36t23-16.11l30.82-7.84q16.37-4.16,27.88,3.17t15.94,24.76l9.89,38.86a41.82,41.82,0,0,1,1.4,10.79,31.41,31.41,0,0,1-1.66,9.7l16.16,10.37-11.83,20L1341,822.41a21.46,21.46,0,0,1-5.28,3.37,42.4,42.4,0,0,1-7.18,2.42L1297.74,836q-16.38,4.17-27.89-3.17t-15.94-24.75Zm22.74,104.81,105.36-26.8a29.7,29.7,0,0,0,21.47-36.1l-29.14-114.58a29.69,29.69,0,0,0-36.11-21.46L1223,701.91A29.71,29.71,0,0,0,1201.51,738l29.14,114.57a29.71,29.71,0,0,0,36.11,21.47"/><path id="Path_7-4" data-name="Path 7" class="cls-1" d="M1295.09,808.18l18.51-4.71-13.94-9,12-20L1327,785.47l-8-31.24q-1.65-6.5-6-9.23t-10.41-1.2l-22.48,5.72q-6.11,1.54-8.58,6t-.82,11l7.94,31.24q1.65,6.48,6,9.23t10.42,1.2"/></g><g id="Group_149-4" data-name="Group 149"><path id="Path_6-5" data-name="Path 6" class="cls-1" d="M346.58-41.28Q355.42-56.92,368.45-61t27.75,4.26l27.68,15.65q14.7,8.32,17.95,21.58t-5.6,28.9L416.49,44.31a41.66,41.66,0,0,1-6.44,8.76,31.31,31.31,0,0,1-7.91,5.86l4.49,18.67-22.38,6.28-4.37-19.7A21.52,21.52,0,0,1,373.73,63a43.26,43.26,0,0,1-6.86-3.21L339.19,44.11q-14.71-8.32-17.95-21.58t5.6-28.9ZM290.52,50.15l94.64,53.5a29.72,29.72,0,0,0,40.48-11.23L483.82-10.5A29.71,29.71,0,0,0,472.58-51l-94.64-53.5a29.71,29.71,0,0,0-40.48,11.24L279.28,9.67a29.71,29.71,0,0,0,11.24,40.48"/><path id="Path_7-5" data-name="Path 7" class="cls-1" d="M356.54,22.15l16.62,9.4L369.3,15.43l22.51-6.09,3.46,18.45L411.13-.27q3.3-5.84,2.09-10.79t-6.7-8.06L386.33-30.54q-5.49-3.1-10.37-1.58t-8.17,7.35L351.93,3.29q-3.3,5.84-2.09,10.79t6.7,8.07"/></g><g id="Group_149-5" data-name="Group 149"><path id="Path_6-6" data-name="Path 6" class="cls-1" d="M1003.46,1051.53q6.4-11.33,15.84-14.26t20.08,3.08l20,11.33q10.63,6,13,15.61t-4.05,20.93l-14.29,25.26a30.21,30.21,0,0,1-4.66,6.34,22.66,22.66,0,0,1-5.73,4.24l3.25,13.52-16.2,4.55-3.16-14.26a15.7,15.7,0,0,1-4.45-.88,31.67,31.67,0,0,1-5-2.33l-20-11.32q-10.65-6-13-15.62t4.06-20.92Zm-40.57,66.18,68.5,38.72a21.49,21.49,0,0,0,29.3-8.13l42.11-74.49a21.5,21.5,0,0,0-8.13-29.3l-68.5-38.73a21.5,21.5,0,0,0-29.3,8.14l-42.12,74.49a21.51,21.51,0,0,0,8.14,29.3"/><path id="Path_7-6" data-name="Path 7" class="cls-1" d="M1010.68,1097.44l12,6.81-2.8-11.67,16.29-4.41,2.51,13.36,11.48-20.31c1.59-2.82,2.1-5.42,1.51-7.82a9.24,9.24,0,0,0-4.84-5.83l-14.62-8.27a9.31,9.31,0,0,0-7.51-1.14q-3.53,1.1-5.91,5.32l-11.48,20.31c-1.59,2.81-2.1,5.42-1.51,7.81a9.29,9.29,0,0,0,4.85,5.84"/></g><g id="Group_149-6" data-name="Group 149"><path id="Path_6-7" data-name="Path 6" class="cls-1" d="M1523.73,938.73q6.15-10.86,15.19-13.68t19.27,3l19.22,10.86q10.21,5.77,12.46,15T1586,973.93l-13.7,24.24a28.67,28.67,0,0,1-4.48,6.08,21.52,21.52,0,0,1-5.49,4.07l3.12,13-15.54,4.36-3-13.67a14.79,14.79,0,0,1-4.26-.85,30,30,0,0,1-4.77-2.23L1518.6,998q-10.21-5.78-12.46-15T1510,963Zm-38.92,63.49,65.71,37.15a20.63,20.63,0,0,0,28.11-7.8l40.4-71.46a20.63,20.63,0,0,0-7.81-28.11l-65.71-37.15a20.63,20.63,0,0,0-28.11,7.8L1477,974.12a20.63,20.63,0,0,0,7.81,28.1"/><path id="Path_7-7" data-name="Path 7" class="cls-1" d="M1530.65,982.78l11.54,6.53-2.68-11.2,15.63-4.23,2.4,12.82,11-19.49q2.3-4.05,1.45-7.49a8.94,8.94,0,0,0-4.65-5.6l-14-7.93a8.9,8.9,0,0,0-7.19-1.1,10.2,10.2,0,0,0-5.68,5.11l-11,19.48a10.16,10.16,0,0,0-1.45,7.5,8.9,8.9,0,0,0,4.65,5.6"/></g><g id="Group_149-7" data-name="Group 149"><path id="Path_6-8" data-name="Path 6" class="cls-1" d="M1356,462.68q-.23-9.81,4.77-15.36t14.22-5.74l17.36-.38q9.23-.21,14.45,5.12t5.44,15.14l.48,21.9a22.64,22.64,0,0,1-.58,5.91,17.18,17.18,0,0,1-2.08,5l7.32,7.51-8.75,9.2-7.55-8a11.62,11.62,0,0,1-3.23,1.14,22.84,22.84,0,0,1-4.12.41l-17.36.38q-9.24.21-14.46-5.12t-5.43-15.13Zm-.8,58.58,59.37-1.29a16.23,16.23,0,0,0,15.87-16.58l-1.4-64.56A16.23,16.23,0,0,0,1412.41,423L1353,424.25a16.24,16.24,0,0,0-15.87,16.58l1.41,64.57a16.23,16.23,0,0,0,16.58,15.86"/><path id="Path_7-8" data-name="Path 7" class="cls-1" d="M1378.34,489.69l10.42-.23-6.31-6.49,8.87-9.14,6.78,7.69-.39-17.6a8,8,0,0,0-2-5.65,7,7,0,0,0-5.4-1.92l-12.67.28a7,7,0,0,0-5.31,2.15,8,8,0,0,0-1.78,5.73l.38,17.61a8,8,0,0,0,2,5.65,7.05,7.05,0,0,0,5.4,1.92"/></g><g id="Group_149-8" data-name="Group 149"><path id="Path_6-9" data-name="Path 6" class="cls-1" d="M1610.12,221.34q8.24-25.54,26.07-35.39t41.85-2.11l45.18,14.56q24,7.74,32.74,26.15t.49,44l-18.36,57a62,62,0,0,1-6.79,14.75,46.54,46.54,0,0,1-9.81,10.95l12.19,25.94L1702.83,393l-12.31-27.49a31.92,31.92,0,0,1-9.36.07,63.94,63.94,0,0,1-11-2.63L1625,348.42q-24-7.74-32.74-26.15t-.5-43.95Zm-54.48,150.54,154.47,49.79a44.33,44.33,0,0,0,55.81-28.59l54.15-168a44.35,44.35,0,0,0-28.61-55.81L1637,119.5a44.34,44.34,0,0,0-55.81,28.6l-54.15,168a44.34,44.34,0,0,0,28.61,55.8"/><path id="Path_7-9" data-name="Path 7" class="cls-1" d="M1643.76,311.1l27.14,8.75-10.5-22.41,31.08-15.68,10.61,25.95,14.77-45.8q3.06-9.53-.2-16.41t-12.22-9.78l-33-10.63q-9-2.88-15.63.81t-9.74,13.2l-14.77,45.8q-3.06,9.53.2,16.41t12.22,9.79"/></g><g id="Group_150" data-name="Group 150" class="cls-2"><path id="Path_6-2-2" data-name="Path 6-2" class="cls-1" d="M-105.77,313.08q-5.13-26.34,5.74-43.58t35.63-22.05l46.6-9.06q24.77-4.81,41.3,7.1t21.65,38.25L56.57,342.5a62,62,0,0,1,1.17,16.2A46.44,46.44,0,0,1,54.44,373l23.2,16.84L58.31,418.69,34.26,400.56a31.64,31.64,0,0,1-8.16,4.57,64.49,64.49,0,0,1-10.9,3l-46.6,9.06q-24.76,4.8-41.3-7.1t-21.65-38.25Zm25,158.14,159.32-31a44.34,44.34,0,0,0,35.07-52L79.9,215a44.35,44.35,0,0,0-52-35.07l-159.32,31a44.35,44.35,0,0,0-35.07,52l33.68,173.25a44.34,44.34,0,0,0,52,35.06"/><path id="Path_7-2-2" data-name="Path 7-2" class="cls-1" d="M-33,375.45-5,370l-20-14.56,19.66-28.73,21.82,17.6L7.29,297.08q-1.92-9.82-8.1-14.28t-15.42-2.66l-34,6.61q-9.23,1.78-13.3,8.24t-2.15,16.27l9.18,47.24q1.91,9.83,8.1,14.27T-33,375.45"/></g><g id="Group_151" data-name="Group 151" class="cls-3"><path id="Path_6-3-2" data-name="Path 6-3" class="cls-1" d="M580.32,515.15q-6.74-34.61,7.55-57.27t46.82-29L695.92,417q32.54-6.33,54.26,9.32t28.45,50.27l15,77.22a81.3,81.3,0,0,1,1.54,21.28,61.19,61.19,0,0,1-4.33,18.81L821.33,616l-25.4,37.89-31.6-23.83a42.12,42.12,0,0,1-10.73,6,84.59,84.59,0,0,1-14.32,3.94L678,652q-32.53,6.31-54.26-9.33t-28.45-50.27ZM613.12,723l209.34-40.69A58.28,58.28,0,0,0,868.55,614L824.3,386.3A58.27,58.27,0,0,0,756,340.22L546.63,380.91a58.27,58.27,0,0,0-46.08,68.32L544.8,676.89A58.27,58.27,0,0,0,613.12,723"/><path id="Path_7-3-2" data-name="Path 7-3" class="cls-1" d="M676,597.11,712.75,590l-26.3-19.13,25.83-37.76L741,556.2l-12.07-62.07q-2.5-12.9-10.64-18.76T698,471.87l-44.68,8.68q-12.12,2.35-17.48,10.83T633,512.77l12.06,62.07q2.52,12.9,10.64,18.75T676,597.11"/></g></svg>