<svg id="Laag_1" data-name="Laag 1" xmlns="http://www.w3.org/2000/svg" viewBox="0 0 150 150"><defs><style>.cls-1{fill:#4c4a50;}</style></defs><path class="cls-1" d="M75,24.24A50.76,50.76,0,1,0,125.76,75,50.74,50.74,0,0,0,75,24.24Zm0,93.58A42.82,42.82,0,1,1,117.82,75,42.79,42.79,0,0,1,75,117.82Z"/><path class="cls-1" d="M91.4,86.1,80.3,75,91.4,63.9a3.75,3.75,0,0,0-5.3-5.3L75,69.7,63.9,58.6a3.75,3.75,0,0,0-5.3,5.3L69.7,75,58.6,86.1a3.75,3.75,0,0,0,5.3,5.3L75,80.3,86.1,91.4a3.75,3.75,0,0,0,5.3-5.3Z"/></svg>