<svg id="Laag_1" data-name="Laag 1" xmlns="http://www.w3.org/2000/svg" viewBox="0 0 150 150"><defs><style>.cls-1{fill:#3aafae;}.cls-2{fill:#35a2a1;}.cls-3{fill:#212121;}</style></defs><polygon class="cls-1" points="38.24 41.8 46 124.46 101 124.46 111.08 41.8 38.24 41.8"/><polygon class="cls-2" points="53 42.46 62 123.46 44 123.46 37 42.46 53 42.46"/><path class="cls-3" d="M106.72,41.41l-6.87,78.31H49.47L42.6,41.41l-8.71.77,7,79.73a7.36,7.36,0,0,0,7.26,6.55h53a7.38,7.38,0,0,0,7.27-6.61l7-79.67Z"/><path class="cls-3" d="M90.68,20.68h-32A7.29,7.29,0,0,0,51.35,28V41.8h8.74V29.42H89.22V41.8H98V28A7.28,7.28,0,0,0,90.68,20.68Z"/><path class="cls-3" d="M121.27,37.43H28.05a4.37,4.37,0,0,0,0,8.74h93.22a4.37,4.37,0,1,0,0-8.74Z"/></svg>