<svg id="Laag_1" data-name="Laag 1" xmlns="http://www.w3.org/2000/svg" viewBox="0 0 150 150"><defs><style>.cls-1{fill:#9d3ff3;}.cls-2{fill:#7032b2;}.cls-3{fill:#212121;}</style></defs><polygon class="cls-1" points="38.24 41.83 46 124.5 101 124.5 111.08 41.83 38.24 41.83"/><polygon class="cls-2" points="53 42.5 62 123.5 44 123.5 37 42.5 53 42.5"/><path class="cls-3" d="M106.72,41.45l-6.87,78.31H49.47L42.6,41.45l-8.71.76,7,79.73a7.36,7.36,0,0,0,7.26,6.56h53a7.38,7.38,0,0,0,7.27-6.61l7-79.68Z"/><path class="cls-3" d="M90.68,20.71h-32A7.3,7.3,0,0,0,51.35,28V41.83h8.74V29.45H89.23V41.83H98V28A7.29,7.29,0,0,0,90.68,20.71Z"/><path class="cls-3" d="M121.27,37.46H28.05a4.37,4.37,0,0,0,0,8.74h93.22a4.37,4.37,0,1,0,0-8.74Z"/></svg>