<svg id="Laag_1" data-name="Laag 1" xmlns="http://www.w3.org/2000/svg" viewBox="0 0 150 150"><defs><style>.cls-1{fill:#3aafae;}.cls-2{fill:#35a2a1;}.cls-3{fill:#212121;stroke:#212121;stroke-miterlimit:10;stroke-width:1.5px;}</style></defs><polygon class="cls-1" points="102 31.5 119 46.5 77 89.5 59 74.5 102 31.5"/><polygon class="cls-2" points="108 34.5 63 79.5 56.4 75 101.23 28.07 108 34.5"/><path class="cls-3" d="M120.65,88.32A2.7,2.7,0,0,0,118,91v24a8.1,8.1,0,0,1-8.1,8.09H34.12A8.09,8.09,0,0,1,26,115V44.65a8.1,8.1,0,0,1,8.1-8.1h24a2.7,2.7,0,0,0,0-5.4h-24a13.51,13.51,0,0,0-13.5,13.5V115a13.5,13.5,0,0,0,13.5,13.49h75.73A13.51,13.51,0,0,0,123.35,115V91A2.7,2.7,0,0,0,120.65,88.32Z"/><path class="cls-3" d="M122.28,24.21a12.14,12.14,0,0,0-17.18,0L57,72.36a2.77,2.77,0,0,0-.7,1.19L49.92,96.41A2.69,2.69,0,0,0,50.61,99a2.72,2.72,0,0,0,2.63.7L76.1,93.4a2.65,2.65,0,0,0,1.19-.69l48.16-48.16a12.17,12.17,0,0,0,0-17.18ZM62.83,74.12,102.24,34.7,115,47.41,75.54,86.83Zm-2.54,5.09L70.44,89.37l-14,3.89Zm61.34-38.48-2.86,2.87L106.06,30.89,108.92,28a6.75,6.75,0,0,1,9.54,0l3.17,3.17A6.75,6.75,0,0,1,121.63,40.73Z"/></svg>