<svg id="Laag_1" data-name="Laag 1" xmlns="http://www.w3.org/2000/svg" viewBox="0 0 150 150"><defs><style>.cls-1{fill:#3aafae;}.cls-2{fill:#35a2a1;}.cls-3{fill:#212121;}</style></defs><path class="cls-1" d="M53.19,76.44S67.74,84.07,72.85,85s23.49-8.54,23.49-8.54l12.51,4.3s18.64,39.62-1.28,43.76H40.68s-8.94-11.3-8.42-14.11,2-24.58,7.14-27.22S42.72,77.46,53.19,76.44Z"/><path class="cls-2" d="M64.17,82.31S48.6,91.41,54,123.5l-17.42-1.15-3.52-16L37.66,85,50.38,75Z"/><path class="cls-3" d="M75,73a25,25,0,0,0,18.27-7.57,25,25,0,0,0,7.57-18.27,25,25,0,0,0-7.57-18.27,25.83,25.83,0,0,0-36.54,0A25,25,0,0,0,49.16,47.2,25.85,25.85,0,0,0,75,73ZM61.18,33.38a19.53,19.53,0,0,1,27.64,0A18.64,18.64,0,0,1,94.55,47.2,18.64,18.64,0,0,1,88.82,61a19.53,19.53,0,0,1-27.64,0A18.64,18.64,0,0,1,55.45,47.2,18.64,18.64,0,0,1,61.18,33.38Z"/><path class="cls-3" d="M119.53,103.85a60.6,60.6,0,0,0-.87-6.78A52.62,52.62,0,0,0,117,90.26a34.38,34.38,0,0,0-2.8-6.36A23.68,23.68,0,0,0,110,78.4a18.68,18.68,0,0,0-6.07-3.82,21,21,0,0,0-7.75-1.4c-1.09,0-2.15.45-4.19,1.78l-4.38,2.82a24.79,24.79,0,0,1-5.66,2.5,22,22,0,0,1-13.85,0,24.69,24.69,0,0,1-5.65-2.5L58,75c-2-1.33-3.1-1.78-4.2-1.78a21,21,0,0,0-7.75,1.4A18.78,18.78,0,0,0,40,78.4a24.14,24.14,0,0,0-4.22,5.5A33.73,33.73,0,0,0,33,90.26a54.72,54.72,0,0,0-1.67,6.81,65.67,65.67,0,0,0-.87,6.78c-.14,2.05-.21,4.19-.21,6.34,0,5.6,1.78,10.13,5.29,13.48s8.05,5,13.63,5h51.66c5.57,0,10.16-1.67,13.63-5s5.29-7.88,5.29-13.48C119.75,108,119.68,105.9,119.53,103.85Zm-9.41,15.26c-2.29,2.18-5.33,3.24-9.29,3.24H49.17c-4,0-7-1.06-9.3-3.24s-3.33-5.06-3.33-8.92c0-2,.06-4,.19-5.9a58.29,58.29,0,0,1,.79-6.11,47,47,0,0,1,1.47-6A27.14,27.14,0,0,1,41.27,87a17.46,17.46,0,0,1,3.1-4.07,12.38,12.38,0,0,1,4-2.51,14.39,14.39,0,0,1,5-1c.22.12.61.34,1.25.76,1.29.84,2.78,1.8,4.43,2.85a30.54,30.54,0,0,0,7.1,3.18,28.32,28.32,0,0,0,17.71,0A31.25,31.25,0,0,0,91,83.08c1.69-1.08,3.14-2,4.43-2.85.63-.42,1-.64,1.25-.76a14.44,14.44,0,0,1,5,1,12.22,12.22,0,0,1,4,2.51A17.49,17.49,0,0,1,108.73,87,27.14,27.14,0,0,1,111,92.18a47,47,0,0,1,1.47,6,58.11,58.11,0,0,1,.78,6.11h0c.14,1.9.2,3.88.2,5.9C113.46,114.06,112.37,117,110.12,119.11Z"/></svg>