<svg id="Laag_1" data-name="Laag 1" xmlns="http://www.w3.org/2000/svg" viewBox="0 0 150 150"><defs><style>.cls-1{fill:#7032b2;}.cls-2{fill:#9d3ff3;}.cls-3{fill:#212121;}</style></defs><rect class="cls-1" x="79.49" y="47.29" width="44.26" height="60.3"/><polygon class="cls-2" points="27.4 21.46 27.4 126.91 44.26 126.91 44.26 107.33 62.13 107.33 62.13 126.91 79.49 126.91 79.49 21.46 27.4 21.46"/><path class="cls-3" d="M123.39,45.09H81.6V20.9a2.2,2.2,0,0,0-2.2-2.2H26.61a2.2,2.2,0,0,0-2.2,2.2V129.1a2.2,2.2,0,0,0,2.2,2.2h96.78a2.2,2.2,0,0,0,2.2-2.2V47.29A2.2,2.2,0,0,0,123.39,45.09ZM81.6,49.49h39.59v55.42H81.6ZM46.41,126.91v-17.6H59.6v17.6Zm15.39-22H44.21a2.2,2.2,0,0,0-2.2,2.2v19.8H28.81V23.09H77.2V126.91H64v-19.8A2.2,2.2,0,0,0,61.8,104.91Zm19.8,22v-17.6h39.59v17.6Z"/><path class="cls-3" d="M50.81,36.29H55.2a2.19,2.19,0,0,0,2.2-2.2v-4.4a2.2,2.2,0,0,0-2.2-2.2H50.81a2.2,2.2,0,0,0-2.2,2.2v4.4A2.19,2.19,0,0,0,50.81,36.29Z"/><path class="cls-3" d="M50.81,51.69H55.2a2.2,2.2,0,0,0,2.2-2.2v-4.4a2.19,2.19,0,0,0-2.2-2.2H50.81a2.19,2.19,0,0,0-2.2,2.2v4.4A2.2,2.2,0,0,0,50.81,51.69Z"/><path class="cls-3" d="M50.81,67.08H55.2a2.19,2.19,0,0,0,2.2-2.2v-4.4a2.2,2.2,0,0,0-2.2-2.2H50.81a2.2,2.2,0,0,0-2.2,2.2v4.4A2.19,2.19,0,0,0,50.81,67.08Z"/><path class="cls-3" d="M50.81,82.48H55.2a2.2,2.2,0,0,0,2.2-2.2v-4.4a2.2,2.2,0,0,0-2.2-2.2H50.81a2.2,2.2,0,0,0-2.2,2.2v4.4A2.2,2.2,0,0,0,50.81,82.48Z"/><path class="cls-3" d="M50.81,97.87H55.2a2.19,2.19,0,0,0,2.2-2.2V91.28a2.19,2.19,0,0,0-2.2-2.2H50.81a2.19,2.19,0,0,0-2.2,2.2v4.39A2.19,2.19,0,0,0,50.81,97.87Z"/><path class="cls-3" d="M35.41,36.29h4.4a2.2,2.2,0,0,0,2.2-2.2v-4.4a2.21,2.21,0,0,0-2.2-2.2h-4.4a2.21,2.21,0,0,0-2.2,2.2v4.4A2.2,2.2,0,0,0,35.41,36.29Z"/><path class="cls-3" d="M35.41,51.69h4.4a2.21,2.21,0,0,0,2.2-2.2v-4.4a2.2,2.2,0,0,0-2.2-2.2h-4.4a2.2,2.2,0,0,0-2.2,2.2v4.4A2.21,2.21,0,0,0,35.41,51.69Z"/><path class="cls-3" d="M35.41,67.08h4.4a2.2,2.2,0,0,0,2.2-2.2v-4.4a2.21,2.21,0,0,0-2.2-2.2h-4.4a2.21,2.21,0,0,0-2.2,2.2v4.4A2.2,2.2,0,0,0,35.41,67.08Z"/><path class="cls-3" d="M35.41,82.48h4.4a2.21,2.21,0,0,0,2.2-2.2v-4.4a2.21,2.21,0,0,0-2.2-2.2h-4.4a2.21,2.21,0,0,0-2.2,2.2v4.4A2.21,2.21,0,0,0,35.41,82.48Z"/><path class="cls-3" d="M35.41,97.87h4.4a2.2,2.2,0,0,0,2.2-2.2V91.28a2.2,2.2,0,0,0-2.2-2.2h-4.4a2.2,2.2,0,0,0-2.2,2.2v4.39A2.2,2.2,0,0,0,35.41,97.87Z"/><path class="cls-3" d="M70.6,27.49H66.2a2.21,2.21,0,0,0-2.2,2.2v4.4a2.2,2.2,0,0,0,2.2,2.2h4.4a2.19,2.19,0,0,0,2.2-2.2v-4.4A2.2,2.2,0,0,0,70.6,27.49Z"/><path class="cls-3" d="M70.6,42.89H66.2a2.2,2.2,0,0,0-2.2,2.2v4.4a2.21,2.21,0,0,0,2.2,2.2h4.4a2.2,2.2,0,0,0,2.2-2.2v-4.4A2.19,2.19,0,0,0,70.6,42.89Z"/><path class="cls-3" d="M70.6,58.28H66.2a2.21,2.21,0,0,0-2.2,2.2v4.4a2.2,2.2,0,0,0,2.2,2.2h4.4a2.19,2.19,0,0,0,2.2-2.2v-4.4A2.2,2.2,0,0,0,70.6,58.28Z"/><path class="cls-3" d="M70.6,73.68H66.2a2.21,2.21,0,0,0-2.2,2.2v4.4a2.21,2.21,0,0,0,2.2,2.2h4.4a2.2,2.2,0,0,0,2.2-2.2v-4.4A2.2,2.2,0,0,0,70.6,73.68Z"/><path class="cls-3" d="M70.6,89.08H66.2a2.2,2.2,0,0,0-2.2,2.2v4.39a2.2,2.2,0,0,0,2.2,2.2h4.4a2.19,2.19,0,0,0,2.2-2.2V91.28A2.19,2.19,0,0,0,70.6,89.08Z"/><path class="cls-3" d="M111.29,58.28h-4.4a2.21,2.21,0,0,0-2.2,2.2v4.4a2.2,2.2,0,0,0,2.2,2.2h4.4a2.2,2.2,0,0,0,2.2-2.2v-4.4A2.21,2.21,0,0,0,111.29,58.28Z"/><path class="cls-3" d="M111.29,73.68h-4.4a2.21,2.21,0,0,0-2.2,2.2v4.4a2.21,2.21,0,0,0,2.2,2.2h4.4a2.21,2.21,0,0,0,2.2-2.2v-4.4A2.21,2.21,0,0,0,111.29,73.68Z"/><path class="cls-3" d="M111.29,89.08h-4.4a2.2,2.2,0,0,0-2.2,2.2v4.39a2.2,2.2,0,0,0,2.2,2.2h4.4a2.2,2.2,0,0,0,2.2-2.2V91.28A2.2,2.2,0,0,0,111.29,89.08Z"/><path class="cls-3" d="M95.89,58.28H91.5a2.2,2.2,0,0,0-2.2,2.2v4.4a2.19,2.19,0,0,0,2.2,2.2h4.39a2.19,2.19,0,0,0,2.2-2.2v-4.4A2.2,2.2,0,0,0,95.89,58.28Z"/><path class="cls-3" d="M95.89,73.68H91.5a2.2,2.2,0,0,0-2.2,2.2v4.4a2.2,2.2,0,0,0,2.2,2.2h4.39a2.2,2.2,0,0,0,2.2-2.2v-4.4A2.2,2.2,0,0,0,95.89,73.68Z"/><path class="cls-3" d="M95.89,89.08H91.5a2.19,2.19,0,0,0-2.2,2.2v4.39a2.19,2.19,0,0,0,2.2,2.2h4.39a2.19,2.19,0,0,0,2.2-2.2V91.28A2.19,2.19,0,0,0,95.89,89.08Z"/></svg>