<svg id="Laag_1" data-name="Laag 1" xmlns="http://www.w3.org/2000/svg" viewBox="0 0 50.78 67.94"><defs><style>.cls-1{fill:#fff;}</style></defs><path class="cls-1" d="M10.73,63,9.29,61.3l-2,1.89,1.35,1.4H6.38a1.51,1.51,0,0,1-1.16-.43A1.62,1.62,0,0,1,4.8,63V59.24A1.62,1.62,0,0,1,5.22,58a1.51,1.51,0,0,1,1.16-.44H9.15a1.51,1.51,0,0,1,1.16.44,1.62,1.62,0,0,1,.42,1.2V63Zm3,1.7a4.81,4.81,0,0,0,.15-1.25V58.78a4.45,4.45,0,0,0-1.11-3.22,4.16,4.16,0,0,0-3.13-1.15H5.87a4.14,4.14,0,0,0-3.13,1.15,4.45,4.45,0,0,0-1.11,3.22v4.63a4.46,4.46,0,0,0,1.11,3.23,4.18,4.18,0,0,0,3.13,1.15H9.66a5.88,5.88,0,0,0,.9-.07,2.69,2.69,0,0,0,.71-.23l1.61,1.73,1.95-1.9L13.27,65.7a3.79,3.79,0,0,0,.48-1"/><rect class="cls-1" x="16.09" y="54.63" width="3.15" height="12.93"/><path class="cls-1" d="M22.18,55.62a4.46,4.46,0,0,0-1,3.21v4.54a4.49,4.49,0,0,0,1,3.22,4.35,4.35,0,0,0,3.18,1h6.2V64.42h-6a1.35,1.35,0,0,1-.91-.21,1.27,1.27,0,0,1-.21-.87v-.72h7.17V59.47H24.39v-.61a1.22,1.22,0,0,1,.22-.87,1.33,1.33,0,0,1,.9-.21h6V54.63h-6.2a4.31,4.31,0,0,0-3.18,1"/><path class="cls-1" d="M43.54,63.64a1.45,1.45,0,0,1-.19.81.61.61,0,0,1-.53.3.76.76,0,0,1-.62-.28,2.31,2.31,0,0,1-.35-.93l-1.06-5.66a4.24,4.24,0,0,0-1.23-2.48,3.5,3.5,0,0,0-2.45-.83,3.61,3.61,0,0,0-2.67,1,3.53,3.53,0,0,0-1,2.64v9.51h3V58.86a1.39,1.39,0,0,1,.2-.81.62.62,0,0,1,.53-.29.71.71,0,0,1,.61.29,2.36,2.36,0,0,1,.35,1l1.06,5.62a4.27,4.27,0,0,0,1.24,2.49,3.52,3.52,0,0,0,2.44.83,3.65,3.65,0,0,0,2.68-1,3.57,3.57,0,0,0,1-2.65v-9.5h-3Z"/><path class="cls-1" d="M49.52,55.8a.43.43,0,0,1-.26.06h-.2v-.48h.18a.51.51,0,0,1,.28.06.2.2,0,0,1,.08.19.18.18,0,0,1-.08.17m.41.08A.45.45,0,0,0,50,55.6a.4.4,0,0,0-.18-.36.92.92,0,0,0-.53-.12h-.65v1.66h.4V56.1h.2l.32.68H50L49.66,56a.53.53,0,0,0,.27-.16"/><path class="cls-1" d="M50.44,56.47a1.33,1.33,0,0,1-.69.66,1.28,1.28,0,0,1-.47.1,1.33,1.33,0,0,1-.48-.1,1.42,1.42,0,0,1-.41-.28,1.31,1.31,0,0,1-.26-.4A1.23,1.23,0,0,1,48,56a1.36,1.36,0,0,1,.09-.48,1.42,1.42,0,0,1,.28-.41,1.18,1.18,0,0,1,.4-.27,1.19,1.19,0,0,1,.47-.09,1.13,1.13,0,0,1,.49.1,1.08,1.08,0,0,1,.4.28,1.18,1.18,0,0,1,.27.4,1.3,1.3,0,0,1,.09.49,1.27,1.27,0,0,1-.09.47m.23-1.06a1.39,1.39,0,0,0-.32-.48,1.37,1.37,0,0,0-.49-.33,1.4,1.4,0,0,0-.58-.12,1.57,1.57,0,0,0-.74.19,1.5,1.5,0,0,0-.53.53,2.11,2.11,0,0,0-.17.38,1.83,1.83,0,0,0-.05.4,1.51,1.51,0,0,0,.11.56,1.57,1.57,0,0,0,.81.82,1.38,1.38,0,0,0,.57.11,1.44,1.44,0,0,0,.57-.11,1.54,1.54,0,0,0,.49-.32A1.42,1.42,0,0,0,50.78,56a1.56,1.56,0,0,0-.11-.57"/><path class="cls-1" d="M9.67,20.34q0-5.19,2.7-8.06c1.8-1.92,4.33-2.87,7.58-2.87h9.18c3.25,0,5.78.95,7.58,2.87s2.7,4.6,2.7,8.06V31.92A12,12,0,0,1,39,35a9.21,9.21,0,0,1-1.15,2.6l3.78,4-4.74,4.76L33,42.11a6,6,0,0,1-1.72.57,12.7,12.7,0,0,1-2.18.17H20A9.92,9.92,0,0,1,12.37,40c-1.8-1.92-2.7-4.6-2.7-8.06ZM8.58,51.28H40a8.58,8.58,0,0,0,8.58-8.57V8.58A8.58,8.58,0,0,0,40,0H8.58A8.58,8.58,0,0,0,0,8.58V42.71a8.58,8.58,0,0,0,8.58,8.57"/><path class="cls-1" d="M21.19,34.87H26.7l-3.26-3.51,4.79-4.73,3.5,4.15V21.47a4.2,4.2,0,0,0-1-3,3.7,3.7,0,0,0-2.83-1.08h-6.7a3.68,3.68,0,0,0-2.83,1.08,4.2,4.2,0,0,0-1,3v9.31a4.25,4.25,0,0,0,1,3,3.7,3.7,0,0,0,2.83,1.08"/></svg>