<svg id="Laag_1" data-name="Laag 1" xmlns="http://www.w3.org/2000/svg" viewBox="0 0 150 150"><defs><style>.cls-1{fill:#ffa751;}</style></defs><path class="cls-1" d="M75,22.93a50.76,50.76,0,1,0,50.76,50.75A50.73,50.73,0,0,0,75,22.93Zm0,93.58a42.83,42.83,0,1,1,42.82-42.83A42.8,42.8,0,0,1,75,116.51Z"/><path class="cls-1" d="M91.4,84.78,80.3,73.68l11.1-11.1a3.75,3.75,0,0,0-5.3-5.3L75,68.38,63.9,57.28a3.75,3.75,0,0,0-5.3,5.3l11.1,11.1L58.6,84.78a3.75,3.75,0,1,0,5.3,5.3L75,79l11.1,11.1a3.75,3.75,0,1,0,5.3-5.3Z"/></svg>