<svg id="Laag_1" data-name="Laag 1" xmlns="http://www.w3.org/2000/svg" viewBox="0 0 150 150"><defs><style>.cls-1{fill:#35a2a1;}.cls-2{fill:#3aafae;}.cls-3{fill:#212121;}</style></defs><circle class="cls-1" cx="75" cy="73.68" r="53.62"/><path class="cls-2" d="M128.62,73.68A53.62,53.62,0,0,0,75,20.06V127.3A53.62,53.62,0,0,0,128.62,73.68Z"/><path class="cls-3" d="M75,131.3a57.6,57.6,0,1,1,40.75-16.87A57.28,57.28,0,0,1,75,131.3ZM75,22.81a50.87,50.87,0,1,0,36,14.9A50.53,50.53,0,0,0,75,22.81Z"/><path class="cls-3" d="M71.62,29.57h6.76v9H71.62Z"/><path class="cls-3" d="M97.42,46.48l6.37-6.37,4.77,4.77-6.37,6.37Z"/><path class="cls-3" d="M110.1,70.3h9v6.76h-9Z"/><path class="cls-3" d="M97.41,100.89l4.78-4.78,6.37,6.37-4.78,4.78Z"/><path class="cls-3" d="M71.62,108.78h6.76v9H71.62Z"/><path class="cls-3" d="M41.41,102.48l6.37-6.37,4.78,4.77-6.38,6.37Z"/><path class="cls-3" d="M30.89,70.3h9v6.76h-9Z"/><path class="cls-3" d="M41.42,44.88l4.77-4.78,6.37,6.37-4.77,4.78Z"/><path class="cls-3" d="M98.84,77.06H71.62V49.84h6.76V70.3H98.84Z"/></svg>